<svg xmlns="http://www.w3.org/2000/svg" viewBox="0 0 100 100" width="256" height="256">
<defs>
<linearGradient id="bg" x1="0" y1="0" x2="1" y2="1"><stop offset="0" stop-color="#1E6B52"/><stop offset="1" stop-color="#0C3A2C"/></linearGradient>
<linearGradient id="gloss" x1="0" y1="0" x2="0" y2="1"><stop offset="0" stop-color="#fff" stop-opacity=".22"/><stop offset=".5" stop-color="#fff" stop-opacity="0"/></linearGradient>
<radialGradient id="vig" cx=".5" cy=".42" r=".75"><stop offset=".55" stop-color="#000" stop-opacity="0"/><stop offset="1" stop-color="#000" stop-opacity=".35"/></radialGradient>
<filter id="sh" x="-30%" y="-30%" width="160%" height="160%"><feDropShadow dx="0" dy="2.2" stdDeviation="2.2" flood-color="#000" flood-opacity=".38"/></filter>
<clipPath id="tile"><rect width="100" height="100" rx="23"/></clipPath>
<linearGradient id="lf" x1="0" y1="0" x2="1" y2="1"><stop offset="0" stop-color="#B8F27C"/><stop offset="1" stop-color="#2FA84F"/></linearGradient>
</defs>
<g clip-path="url(#tile)">
<rect width="100" height="100" fill="url(#bg)"/>
<rect width="100" height="100" fill="url(#vig)"/>
<g filter="url(#sh)"><path d="M22 80 C 22 46, 42 24, 80 18 C 78 56, 58 80, 22 80 Z" fill="url(#lf)"/><path d="M26 76 Q 50 54 74 24" fill="none" stroke="#E9FFD6" stroke-opacity=".75" stroke-width="2.2" stroke-linecap="round"/><path d="M40 62 L 36 48 M50 52 L 48 38 M58 44 L 58 32 M44 58 L 58 60 M54 48 L 66 50" stroke="#E9FFD6" stroke-opacity=".45" stroke-width="1.4" stroke-linecap="round"/><path d="M22 80 L 16 86" stroke="#2FA84F" stroke-width="4" stroke-linecap="round"/></g>
<rect width="100" height="56" fill="url(#gloss)"/>
</g>
<rect x=".5" y=".5" width="99" height="99" rx="22.5" fill="none" stroke="#fff" stroke-opacity=".14"/>
</svg>