<svg xmlns="http://www.w3.org/2000/svg" viewBox="0 0 100 100" width="256" height="256">
<defs>
<linearGradient id="bg" x1="0" y1="0" x2="1" y2="1"><stop offset="0" stop-color="#00A6A6"/><stop offset="1" stop-color="#04504F"/></linearGradient>
<linearGradient id="gloss" x1="0" y1="0" x2="0" y2="1"><stop offset="0" stop-color="#fff" stop-opacity=".22"/><stop offset=".5" stop-color="#fff" stop-opacity="0"/></linearGradient>
<radialGradient id="vig" cx=".5" cy=".42" r=".75"><stop offset=".55" stop-color="#000" stop-opacity="0"/><stop offset="1" stop-color="#000" stop-opacity=".35"/></radialGradient>
<filter id="sh" x="-30%" y="-30%" width="160%" height="160%"><feDropShadow dx="0" dy="2.2" stdDeviation="2.2" flood-color="#000" flood-opacity=".38"/></filter>
<clipPath id="tile"><rect width="100" height="100" rx="23"/></clipPath>
<linearGradient id="bg2" x1="0" y1="0" x2="0" y2="1"><stop offset="0" stop-color="#FF9F5A"/><stop offset="1" stop-color="#D9571A"/></linearGradient><linearGradient id="hd" x1="0" y1="0" x2="0" y2="1"><stop offset="0" stop-color="#5A2A0E"/><stop offset="1" stop-color="#3A1A08"/></linearGradient>
</defs>
<g clip-path="url(#tile)">
<rect width="100" height="100" fill="url(#bg)"/>
<rect width="100" height="100" fill="url(#vig)"/>
<g filter="url(#sh)"><path d="M37 40 V 33 A 13 13 0 0 1 63 33 V 40" fill="none" stroke="url(#hd)" stroke-width="5.5" stroke-linecap="round"/><path d="M26 40 H 74 Q 79 40 79.5 45 L 82 78 Q 82 84 76 84 H 24 Q 18 84 18 78 L 20.5 45 Q 21 40 26 40 Z" fill="url(#bg2)"/><rect x="20" y="52" width="60" height="5" fill="#000" opacity=".15"/><rect x="44" y="58" width="12" height="9" rx="2" fill="#FFE1C7"/><path d="M26 44 H 74" stroke="#fff" stroke-opacity=".35" stroke-width="1.5"/></g>
<rect width="100" height="56" fill="url(#gloss)"/>
</g>
<rect x=".5" y=".5" width="99" height="99" rx="22.5" fill="none" stroke="#fff" stroke-opacity=".14"/>
</svg>