<svg xmlns="http://www.w3.org/2000/svg" viewBox="0 0 100 100" width="256" height="256">
<defs>
<linearGradient id="bg" x1="0" y1="0" x2="1" y2="1"><stop offset="0" stop-color="#2A2A2E"/><stop offset="1" stop-color="#09090B"/></linearGradient>
<linearGradient id="gloss" x1="0" y1="0" x2="0" y2="1"><stop offset="0" stop-color="#fff" stop-opacity=".22"/><stop offset=".5" stop-color="#fff" stop-opacity="0"/></linearGradient>
<radialGradient id="vig" cx=".5" cy=".42" r=".75"><stop offset=".55" stop-color="#000" stop-opacity="0"/><stop offset="1" stop-color="#000" stop-opacity=".35"/></radialGradient>
<filter id="sh" x="-30%" y="-30%" width="160%" height="160%"><feDropShadow dx="0" dy="2.2" stdDeviation="2.2" flood-color="#000" flood-opacity=".38"/></filter>
<clipPath id="tile"><rect width="100" height="100" rx="23"/></clipPath>

</defs>
<g clip-path="url(#tile)">
<rect width="100" height="100" fill="url(#bg)"/>
<rect width="100" height="100" fill="url(#vig)"/>
<g filter="url(#sh)"><polygon points="50,53 41.8,41.7 50.0,19.0" fill="#FFE27A"/><polygon points="50,53 50.0,19.0 58.2,41.7" fill="#D99A1E"/><polygon points="50,53 58.2,41.7 82.3,42.5" fill="#FFE27A"/><polygon points="50,53 82.3,42.5 63.3,57.3" fill="#D99A1E"/><polygon points="50,53 63.3,57.3 70.0,80.5" fill="#FFE27A"/><polygon points="50,53 70.0,80.5 50.0,67.0" fill="#D99A1E"/><polygon points="50,53 50.0,67.0 30.0,80.5" fill="#FFE27A"/><polygon points="50,53 30.0,80.5 36.7,57.3" fill="#D99A1E"/><polygon points="50,53 36.7,57.3 17.7,42.5" fill="#FFE27A"/><polygon points="50,53 17.7,42.5 41.8,41.7" fill="#D99A1E"/></g>
<rect width="100" height="56" fill="url(#gloss)"/>
</g>
<rect x=".5" y=".5" width="99" height="99" rx="22.5" fill="none" stroke="#fff" stroke-opacity=".14"/>
</svg>