<svg xmlns="http://www.w3.org/2000/svg" viewBox="0 0 100 100" width="256" height="256">
<defs>
<linearGradient id="bg" x1="0" y1="0" x2="1" y2="1"><stop offset="0" stop-color="#1F4E8C"/><stop offset="1" stop-color="#0A1A33"/></linearGradient>
<linearGradient id="gloss" x1="0" y1="0" x2="0" y2="1"><stop offset="0" stop-color="#fff" stop-opacity=".22"/><stop offset=".5" stop-color="#fff" stop-opacity="0"/></linearGradient>
<radialGradient id="vig" cx=".5" cy=".42" r=".75"><stop offset=".55" stop-color="#000" stop-opacity="0"/><stop offset="1" stop-color="#000" stop-opacity=".35"/></radialGradient>
<filter id="sh" x="-30%" y="-30%" width="160%" height="160%"><feDropShadow dx="0" dy="2.2" stdDeviation="2.2" flood-color="#000" flood-opacity=".38"/></filter>
<clipPath id="tile"><rect width="100" height="100" rx="23"/></clipPath>
<linearGradient id="bz" x1="0" y1="0" x2="1" y2="1"><stop offset="0" stop-color="#F4F6FA"/><stop offset="1" stop-color="#9AA7BA"/></linearGradient><radialGradient id="dl" cx="0.5" cy="0.4" r="0.7"><stop offset="0" stop-color="#24364F"/><stop offset="1" stop-color="#0E1A2A"/></radialGradient>
</defs>
<g clip-path="url(#tile)">
<rect width="100" height="100" fill="url(#bg)"/>
<rect width="100" height="100" fill="url(#vig)"/>
<g filter="url(#sh)"><circle cx="50" cy="50" r="32" fill="url(#bz)"/><circle cx="50" cy="50" r="27" fill="url(#dl)"/><rect x="49" y="21" width="2" height="5" rx="1" fill="#fff" opacity=".7" transform="rotate(0 50 50)"/><rect x="49" y="21" width="2" height="5" rx="1" fill="#fff" opacity=".7" transform="rotate(90 50 50)"/><rect x="49" y="21" width="2" height="5" rx="1" fill="#fff" opacity=".7" transform="rotate(180 50 50)"/><rect x="49" y="21" width="2" height="5" rx="1" fill="#fff" opacity=".7" transform="rotate(270 50 50)"/><polygon points="50,25 56,50 50,50" fill="#FF5A4E"/><polygon points="50,25 44,50 50,50" fill="#C9241A"/><polygon points="50,75 56,50 50,50" fill="#D7DDE6"/><polygon points="50,75 44,50 50,50" fill="#FFFFFF"/><circle cx="50" cy="50" r="3.2" fill="#E9EDF3" stroke="#6B778A" stroke-width="1"/></g>
<rect width="100" height="56" fill="url(#gloss)"/>
</g>
<rect x=".5" y=".5" width="99" height="99" rx="22.5" fill="none" stroke="#fff" stroke-opacity=".14"/>
</svg>